<?xml version="1.0" encoding="UTF-8"?>
<svg id="Layer_1" xmlns="http://www.w3.org/2000/svg" version="1.1" viewBox="0 0 1000 1000">
  <!-- Generator: Adobe Illustrator 30.0.0, SVG Export Plug-In . SVG Version: 2.1.1 Build 123)  -->
  <defs>
    <style>
      .st0 {
        fill: #e6002d;
      }
    </style>
  </defs>
  <rect class="st0" width="1000" height="1000"/>
  <g>
    <g>
      <path d="M922.86,538.23l8.69-19.16c-3.98,1.67-7.69,3.22-11.14,4.66l-10.06,22.18h21.15l3.48-7.68h-12.12Z"/>
      <path d="M922.65,518.8c4.56-2.4,8.46-4.47,11.86-6.26h.01l9.64-21.25h-9.03l-12.48,27.51Z"/>
      <polygon points="749.24 538.23 775.67 491.3 767.15 491.3 736.39 545.91 757.24 545.91 761.02 538.23 749.24 538.23"/>
      <polygon points="829.6 491.3 820.39 491.3 809.17 515.51 808.56 515.51 813.32 491.3 803.91 491.3 799.26 531.24 794.39 545.91 802.88 545.91 807.73 531.29 829.6 491.3"/>
      <path d="M950.62,510.96l-15.86,34.95h21.15l3.48-7.68h-12.11l14.56-32.11c-3.89,1.68-7.63,3.29-11.22,4.84Z"/>
      <path d="M959.54,491.3l-4.78,10.55c3.77-2,7.26-3.83,11.87-6.26l1.94-4.29h-9.03Z"/>
      <path d="M787.15,491.3l-26.65,54.62h8.51l5.77-12.69,7.5-4.12-5.23,16.81h8.88l14.57-54.62h-13.35ZM783.85,522.91l-6,3.19,12.15-26.43h.91l-7.06,23.24Z"/>
      <path d="M903.82,530.58l-5.71,15.33h9.42l6.6-19.58c-3.86,1.59-7.3,3.01-10.32,4.25Z"/>
      <path d="M890.64,544.51l5.94-10.98c-4.71,1.9-7.4,2.95-7.95,3.17l2.27-1.18c9.63-5.07,17.68-9.3,24.5-12.89l10.56-31.29h-14.11l-25.96,45.39-.43.74c-7.56-12.29-14.83-22.84-14.83-22.84,25.34-16.36,46.45-32.87,46.45-32.87,9.6-7.21,24.84-20.31,26.66-32.36,1.91-12.55-14.17-16.78-25.69-15.47-15.58,1.8-33.04,9.01-47.25,15.44,0,0-38.55,17.16-68.86,39.35l15.87-7.09c17.06-8.14,33.88-14.41,51.83-20.22,9.1-2.94,31.28-9,41.35-6.77,4.29.99,7.24,3.58,5.57,7.99,0,0-.56,11.52-56.71,50.86l36.52-51.07-55.83,25.8c-2.71,1.34-3.25,1.76-1.49,1.33,5.37-1.65,10.76-.54,8.2,3.55h0s-39.64,52.83-39.64,52.83h29.03l4.75-6.64c35.42,22.52,37.84,24.63,52.18,33.19,15.51,9.19,7.3-8.81-3.39-27.09l.43-.86ZM914.32,499.71h1s-7.85,21.5-8.34,22.41l-6.47,3.53,13.81-25.93ZM878.91,556.03c-.91-.49-4.74-2.99-34.17-21.41l12.24-17.11c8.04,11.86,29.45,42.61,21.92,38.51Z"/>
      <path d="M707.1,488.13c-4.62,2.14-2.09,1.48-1.34,1.27,5.06-1.47,10.28-.42,7.91,3.56l-39.62,52.96h28.99l59.77-83.56-55.72,25.78Z"/>
      <path d="M744.7,500.15c13.26-6.97,17.57-9.39,34.08-20.14,10.07-6.57,27.62-19.94,29.44-32,1.9-12.56-11.53-14.78-20.71-14.25-15.66.91-36.73,9.48-50.94,15.91,0,0-34.19,14.6-67.13,38.22-1.24.84-2.41,1.83-.72,1.08l5.37-2.7c19.21-9.81,40.18-17.9,60.83-24.58,9.1-2.94,32.42-10.1,41.56-6.87,3.55,1.26,3.71,4.78,2.46,7.95-2.81,7.54-15.97,19.46-22.8,25.34-9.83,8.46-9.06,7.92-19.49,15.42-2.49,1.79-1.51,1.51,1.09.19,4.13-2.09,2.39-1.19,6.95-3.59Z"/>
    </g>
    <g>
      <path d="M286.4,529.6l8.69-19.16c-3.98,1.67-7.69,3.22-11.14,4.66l-10.06,22.18h21.15l3.48-7.68h-12.12Z"/>
      <path d="M286.19,510.17c4.56-2.4,8.46-4.47,11.86-6.26h.01l9.64-21.25h-9.03l-12.48,27.51Z"/>
      <polygon points="112.78 529.6 139.22 482.67 130.69 482.67 99.93 537.28 120.79 537.28 124.56 529.6 112.78 529.6"/>
      <polygon points="193.14 482.67 183.93 482.67 172.71 506.88 172.1 506.88 176.87 482.67 167.45 482.67 162.8 522.6 157.93 537.28 166.42 537.28 171.27 522.66 193.14 482.67"/>
      <path d="M314.17,502.33l-15.86,34.95h21.15l3.48-7.68h-12.11l14.56-32.11c-3.89,1.68-7.63,3.29-11.22,4.84Z"/>
      <path d="M323.08,482.67l-4.78,10.55c3.77-2,7.26-3.83,11.87-6.26l1.94-4.29h-9.03Z"/>
      <path d="M150.7,482.67l-26.65,54.62h8.51l5.77-12.69,7.5-4.12-5.23,16.81h8.88l14.57-54.62h-13.35ZM147.39,514.28l-6,3.19,12.15-26.43h.91l-7.06,23.24Z"/>
      <path d="M267.37,521.95l-5.71,15.33h9.42l6.6-19.58c-3.86,1.59-7.3,3.01-10.32,4.25Z"/>
      <path d="M254.18,535.88l5.94-10.98c-4.71,1.9-7.4,2.95-7.95,3.17l2.27-1.18c9.63-5.07,17.68-9.3,24.5-12.89l10.56-31.29h-14.11l-25.96,45.39-.43.74c-7.56-12.29-14.83-22.84-14.83-22.84,25.34-16.36,46.45-32.87,46.45-32.87,9.6-7.21,24.84-20.31,26.66-32.36,1.91-12.55-14.17-16.78-25.69-15.47-15.58,1.8-33.04,9.01-47.25,15.44,0,0-38.55,17.16-68.86,39.35l15.87-7.09c17.06-8.14,33.88-14.41,51.83-20.22,9.1-2.94,31.28-9,41.35-6.77,4.29.99,7.24,3.58,5.57,7.99,0,0-.56,11.52-56.71,50.86l36.52-51.07-55.83,25.8c-2.71,1.34-3.25,1.76-1.49,1.33,5.37-1.65,10.76-.54,8.2,3.55h0s-39.64,52.83-39.64,52.83h29.03l4.75-6.64c35.42,22.52,37.84,24.63,52.18,33.19,15.51,9.19,7.3-8.81-3.39-27.09l.43-.86ZM277.87,491.08h1s-7.85,21.5-8.34,22.41l-6.47,3.53,13.81-25.93ZM242.46,547.4c-.91-.49-4.74-2.99-34.17-21.41l12.24-17.11c8.04,11.86,29.45,42.61,21.92,38.51Z"/>
      <path d="M70.64,479.5c-4.62,2.14-2.09,1.48-1.34,1.27,5.06-1.47,10.28-.42,7.91,3.56l-39.62,52.96h28.99l59.77-83.56-55.72,25.78Z"/>
      <path d="M108.25,491.52c13.26-6.97,17.57-9.39,34.08-20.14,10.07-6.57,27.62-19.94,29.44-32,1.9-12.56-11.53-14.78-20.71-14.25-15.66.91-36.73,9.48-50.94,15.91,0,0-34.19,14.6-67.13,38.22-1.24.84-2.41,1.83-.72,1.08l5.37-2.7c19.21-9.81,40.18-17.9,60.83-24.58,9.1-2.94,32.42-10.1,41.56-6.87,3.55,1.26,3.71,4.78,2.46,7.95-2.81,7.54-15.97,19.46-22.8,25.34-9.83,8.46-9.06,7.92-19.49,15.42-2.49,1.79-1.51,1.51,1.09.19,4.13-2.09,2.39-1.19,6.95-3.59Z"/>
    </g>
  </g>
</svg>