<?xml version="1.0" encoding="UTF-8"?>
<svg id="Layer_1" xmlns="http://www.w3.org/2000/svg" version="1.1" viewBox="0 0 1000 1000">
  <!-- Generator: Adobe Illustrator 30.0.0, SVG Export Plug-In . SVG Version: 2.1.1 Build 123)  -->
  <defs>
    <style>
      .st0 {
        fill: #e6002d;
      }
    </style>
  </defs>
  <rect width="1000" height="1000"/>
  <g>
    <path class="st0" d="M682.63,555.94l15.09-33.27c-6.91,2.9-13.35,5.6-19.34,8.09l-17.47,38.52h36.73l6.05-13.34h-21.05Z"/>
    <path class="st0" d="M682.26,522.21c7.91-4.18,14.69-7.77,20.59-10.86h.01l16.73-36.9h-15.68l-21.67,47.75h.01Z"/>
    <polygon class="st0" points="381.15 555.94 427.06 474.44 412.25 474.44 358.83 569.28 395.06 569.28 401.61 555.94 381.15 555.94"/>
    <polygon class="st0" points="520.68 474.44 504.69 474.44 485.21 516.48 484.16 516.48 492.43 474.44 476.08 474.44 468.01 543.79 459.54 569.28 474.29 569.28 482.71 543.89 520.68 474.44"/>
    <path class="st0" d="M730.85,508.58l-27.54,60.69h36.73l6.05-13.34h-21.02l25.27-55.76c-6.74,2.92-13.24,5.72-19.49,8.4Z"/>
    <path class="st0" d="M746.32,474.44l-8.31,18.32c6.55-3.47,12.6-6.65,20.62-10.86l3.38-7.46h-15.68Z"/>
    <path class="st0" d="M446.99,474.44l-46.27,94.84h14.78l10.02-22.04,13.03-7.16-9.09,29.2h15.43l25.3-94.84h-23.2ZM441.25,529.33l-10.42,5.54,21.11-45.89h1.59l-12.27,40.34Z"/>
    <path class="st0" d="M649.58,542.66l-9.9,26.62h16.36l11.47-33.99c-6.71,2.77-12.67,5.23-17.92,7.37h-.01Z"/>
    <path class="st0" d="M626.68,566.83l10.32-19.07c-8.17,3.29-12.85,5.13-13.81,5.5l3.94-2.05c16.72-8.79,30.69-16.16,42.54-22.39l18.33-54.33h-24.5l-45.07,78.8-.74,1.29c-13.13-21.34-25.74-39.66-25.74-39.66,43.99-28.41,80.66-57.08,80.66-57.08,16.67-12.52,43.14-35.26,46.3-56.19,3.32-21.79-24.62-29.14-44.6-26.86-27.05,3.13-57.37,15.64-82.05,26.81,0,0-66.93,29.81-119.56,68.34l27.55-12.3c29.63-14.14,58.84-25.02,89.99-35.1,15.8-5.11,54.32-15.62,71.81-11.75,7.46,1.72,12.58,6.22,9.68,13.87,0,0-.98,20.01-98.47,88.3l63.42-88.68-96.95,44.79c-4.7,2.33-5.63,3.07-2.59,2.3,9.32-2.86,18.69-.93,14.24,6.17h0l-68.83,91.74h50.41l8.26-11.53c61.51,39.1,65.7,42.77,90.6,57.62,26.93,15.95,12.67-15.3-5.88-47.04l.74-1.5h.01ZM667.81,489.05h1.73s-13.64,37.32-14.5,38.91l-11.23,6.12,23.98-45.03h.01ZM606.32,586.84c-1.59-.86-8.23-5.19-59.33-37.17l21.25-29.7c13.96,20.6,51.13,73.99,38.06,66.87h.01Z"/>
    <path class="st0" d="M307.98,468.94c-8.02,3.72-3.62,2.58-2.33,2.19,8.77-2.56,17.84-.73,13.74,6.2l-68.8,91.95h50.33l103.78-145.1-96.74,44.76h.01Z"/>
    <path class="st0" d="M373.27,489.81c23.03-12.09,30.52-16.3,59.18-34.98,17.49-11.4,47.96-34.62,51.13-55.55,3.31-21.82-20.02-25.67-35.96-24.74-27.2,1.57-63.78,16.45-88.45,27.63,0,0-59.36,25.34-116.57,66.37-2.15,1.47-4.19,3.17-1.26,1.88l9.32-4.7c33.35-17.04,69.78-31.09,105.63-42.69,15.8-5.11,56.29-17.53,72.16-11.92,6.17,2.18,6.43,8.31,4.27,13.81-4.88,13.09-27.73,33.79-39.59,44-17.06,14.69-15.73,13.75-33.84,26.78-4.31,3.11-2.62,2.62,1.9.34,7.16-3.63,4.15-2.07,12.06-6.24h0Z"/>
  </g>
</svg>