<?xml version="1.0" encoding="UTF-8"?>
<svg id="logo" xmlns="http://www.w3.org/2000/svg" version="1.1" xmlns:xlink="http://www.w3.org/1999/xlink" viewBox="0 0 600 402.04">
  <!-- Generator: Adobe Illustrator 29.8.2, SVG Export Plug-In . SVG Version: 2.1.1 Build 3)  -->
  <defs>
    <style>
      .st0 {
        fill: #fff;
      }

      .st1 {
        fill: none;
      }

      .st2 {
        fill: #c31808;
      }

      .st3 {
        clip-path: url(#clippath);
      }
    </style>
    <clipPath id="clippath">
      <path class="st1" d="M548.57,167.32c-15.77,15.37-37.06,24.76-58.78,31.79-19.96,6.46-40.31,9.17-56.52,10.2-11.79-11.18-25.68-26.29-36.87-44.03-12.18-19.31-22.51-40.16-24.78-62.06-2.27-21.9,4.16-44.88,20.81-59.41,16.66-14.52,44.32-18.49,64.39-6.24,13.35,8.15,21.72,22,25.45,36.46,12.13-8.71,27.42-13.99,42.89-11.7,23.26,3.45,41.97,24.21,45.46,46.03,3.49,21.82-6.29,43.59-22.06,58.95Z"/>
    </clipPath>
  </defs>
  <path class="st2" d="M49.22,358.98l-49.22,3.36,46.2-34.62-8.8-25.75c2.11-1.36,9.83-6.44,19.05-12.51h-28.79l66.58-116.91-45.78-20.74,82.88-22.54L337.95,5.3l-42.26,76.56c9.82.31,17,3.17,22.21,6.88l23.41-6.24c2.59-24.56,13.49-46.62,30.8-61.7,15.16-13.22,35.88-20.8,56.83-20.8,15.3,0,29.96,4.02,42.41,11.61,9.37,5.72,17.58,13.46,24.18,22.73,7.12-1.89,14.29-2.84,21.43-2.84,3.91,0,7.83.29,11.66.86,17.46,2.59,34.2,11.43,47.13,24.9,12.28,12.79,20.52,29.02,23.19,45.72,4.76,29.78-6.69,61.48-30.63,84.81-22.02,21.46-50.68,32.39-70.31,38.74-3.25,1.05-6.63,2.05-10.07,2.99l-33.44,35.06,22.67,3.34,79.43-11.35-78.41,97.39-109.97-40.92-15.78,23.16-65.42,10.89.28-1.72-42.4,5.12c-7.29,5.53-13.52,7.56-15.48,8.1l-.62.17-100.14,21.94-10.56,17.62-94.4,3.7,25.53-43.05Z"/>
  <g>
    <path d="M423.1,219.85c-15.92-15.09-29.11-30.87-39.21-46.88-10.22-16.2-24.13-40.92-26.98-68.42-2.95-28.47,6.7-55.42,25.81-72.08,12.51-10.9,29.68-17.16,47.11-17.16,12.58,0,24.58,3.27,34.7,9.45,10.67,6.51,19.38,16.13,25.45,27.9,9.09-3.82,18.61-5.85,27.87-5.85,3.18,0,6.37.23,9.49.7,14.24,2.11,27.96,9.4,38.64,20.51,10.22,10.63,17.05,24.06,19.26,37.82,4,25.03-5.85,51.91-26.35,71.88-19.8,19.29-46.32,29.37-64.54,35.26-18,5.83-38.24,9.49-60.13,10.89l-6.44.41-4.68-4.44Z"/>
    <polygon points="100.06 241.68 118.84 211.33 287.33 138.61 433.15 66.61 528.79 113.6 482.25 189.3 390.22 289.83 301.01 263.85 126.15 296.34 100.06 241.68"/>
    <polygon points="280.86 231.23 315.83 225.61 310.34 247.8 327.35 223.76 355.59 219.23 353.06 241.68 367.96 217.37 426.12 203.61 344.67 323.18 305.85 329.64 309.22 309.12 287.48 331.09 238.72 336.97 280.86 231.23"/>
    <path d="M173.97,347.62l-.3.03,1.87-12.03c3.81-24.46,32.3-76.05,35.54-81.86l.66-1.18.96-.95c11.51-11.39,41.9-16.8,47.88-17.77l25.42-4.12-12.29,14.51c2.2,1.29,3.73,2.87,4.77,4.32,4.62,6.4,2.6,13.65,2.15,15.04l-.19.6-.27.57c-.9,1.88-22.2,46.22-30.43,59.81-9.76,16.12-21.99,19.88-23.35,20.26l-.24.07-62.21,13.63,10.05-10.94Z"/>
    <path d="M77.22,342.84l-26.03,43.88,59.23-2.32,22.27-37.16-.02.13,42.5-3.98,63.51-116.55-53.45,17.36.02-.12-41.42,7.58-1.56.99s-17.51,11.13-35.01,22.29c-10.17,6.48-55.17,36.28-60.98,40l49-4.32-45.48,34.08,27.4-1.87Z"/>
    <path d="M216.03,120.1l-61.55,116.87,102.57-34.85,4.89-9.03-1.37,13.41,79.93-48.76h-32.14c10.29-25.17,13.67-40.73,6.78-51.27-4.04-6.19-10.87-9.32-20.3-9.32-.36,0-.72,0-1.09.01-12.97.32-26.46,11.93-42.36,36.5l47.97-86.9-124.08,74.45,40.75-1.12Z"/>
    <path d="M54,275.21l62.02-108.9-23.13-10.48,94.79-25.78.6-.08c.32-.04,1.48-.19,3.09-.19,6.25,0,11.73,2.09,15.45,5.87,2.48,2.52,5.4,7.06,5.26,14.34-.1,5.24-2.75,14.19-21.68,40.83-9.93,13.97-19.65,26.2-20.06,26.72l-2.27,2.85-38.81,6.48-12.98,48.33h-62.27Z"/>
    <path class="st0" d="M126.15,170.96"/>
    <g class="st3">
      <path class="st0" d="M548.57,167.32c-15.77,15.37-37.06,24.76-58.78,31.79-19.96,6.46-40.31,9.17-56.52,10.2-11.79-11.18-25.68-26.29-36.87-44.03-12.18-19.31-22.51-40.16-24.78-62.06-2.27-21.9,4.16-44.88,20.81-59.41,16.66-14.52,44.32-18.49,64.39-6.24,13.35,8.15,21.72,22,25.45,36.46,12.13-8.71,27.42-13.99,42.89-11.7,23.26,3.45,41.97,24.21,45.46,46.03,3.49,21.82-6.29,43.59-22.06,58.95Z"/>
      <g>
        <g>
          <path class="st2" d="M391.56,156.53c2.76-2.17,9.4.1,9.4.1-4.7,2.32-9.94,1.5-9.4-.1Z"/>
          <g>
            <path class="st2" d="M395.19,151.71c.29-3.81-6.44-8.09-6.44-8.09,3.21,6.2,4.47,9.12,6.44,8.09Z"/>
            <path class="st2" d="M395.19,151.71c3.38-2.21,10.35.18,10.35.18-5.37,1.94-11.14,1.47-10.35-.18Z"/>
          </g>
          <g>
            <path class="st2" d="M399.7,146.73c.68-3.93-6.79-8.51-6.79-8.51,2.88,6.22,4.56,9.6,6.79,8.51Z"/>
            <path class="st2" d="M399.7,146.73c3.88-2.23,10.99.64,10.99.64-5.89,1.5-12,1.1-10.99-.64Z"/>
          </g>
          <g>
            <path class="st2" d="M404.92,141.47c.99-4.08-7.09-8.78-7.09-8.78,2.59,6.24,4.66,9.97,7.09,8.78Z"/>
            <path class="st2" d="M404.92,141.47c4.26-2.25,11.37,1.36,11.37,1.36-6.29,1.07-12.55.53-11.37-1.36Z"/>
          </g>
          <g>
            <path class="st2" d="M410.68,135.86c1.24-4.26-7.35-8.95-7.35-8.95,2.34,6.28,4.78,10.29,7.35,8.95Z"/>
            <path class="st2" d="M410.68,135.86c4.53-2.3,11.55,2.19,11.55,2.19-6.57.68-12.86-.1-11.55-2.19Z"/>
          </g>
          <g>
            <path class="st2" d="M416.82,129.78c1.41-4.47-7.56-9.08-7.56-9.08,2.13,6.35,4.91,10.59,7.56,9.08Z"/>
            <path class="st2" d="M416.82,129.78c4.7-2.4,11.57,2.99,11.57,2.99-6.77.39-12.96-.68-11.57-2.99Z"/>
          </g>
          <g>
            <path class="st2" d="M423.17,123.15c1.51-4.73-7.73-9.19-7.73-9.19,1.96,6.46,5.06,10.92,7.73,9.19Z"/>
            <path class="st2" d="M423.17,123.15c4.77-2.55,11.5,3.63,11.5,3.63-6.9.26-12.93-1.07-11.5-3.63Z"/>
          </g>
          <g>
            <path class="st2" d="M429.55,115.85c1.53-5.04-7.87-9.34-7.87-9.34,1.82,6.64,5.23,11.31,7.87,9.34Z"/>
            <path class="st2" d="M429.55,115.85c4.76-2.79,11.39,3.97,11.39,3.97-6.99.33-12.79-1.13-11.39-3.97Z"/>
          </g>
          <g>
            <path class="st2" d="M435.8,107.79c1.49-5.4-7.99-9.55-7.99-9.55,1.84,6.81,5.44,11.79,7.99,9.55Z"/>
            <path class="st2" d="M435.8,107.79c4.67-3.13,11.26,3.87,11.26,3.87-6.87.69-12.59-.76-11.26-3.87Z"/>
          </g>
          <g>
            <path class="st2" d="M441.28,99.08c.86-5.59-8.26-9.32-8.26-9.32,2.22,6.54,6.15,11.7,8.26,9.32Z"/>
            <path class="st2" d="M441.28,99.08c3.97-3.4,10.83,3.43,10.83,3.43-6.11,1.3-11.74-.21-10.83-3.43Z"/>
          </g>
          <g>
            <path class="st2" d="M445.39,90.1c.27-5.59-8.3-8.65-8.3-8.65,2.49,6.08,6.65,11.11,8.3,8.65Z"/>
            <path class="st2" d="M445.39,90.1c3.27-3.59,10.4,2.7,10.4,2.7-5.4,1.89-10.91.53-10.4-2.7Z"/>
          </g>
          <g>
            <path class="st2" d="M448.25,81.06c-.22-5.44-8.18-7.63-8.18-7.63,2.67,5.47,6.93,10.13,8.18,7.63Z"/>
            <path class="st2" d="M448.25,81.06c2.64-3.72,9.98,1.78,9.98,1.78-4.73,2.43-10.14,1.37-9.98-1.78Z"/>
          </g>
          <g>
            <path class="st2" d="M450.02,72.17c-.63-5.16-7.95-6.38-7.95-6.38,2.79,4.74,7.06,8.85,7.95,6.38Z"/>
            <path class="st2" d="M450.02,72.17c2.08-3.77,9.55.82,9.55.82-4.09,2.87-9.4,2.19-9.55-.82Z"/>
          </g>
          <g>
            <path class="st2" d="M450.84,63.66c-.96-4.76-7.67-5-7.67-5,2.86,3.94,7.1,7.38,7.67,5Z"/>
            <path class="st2" d="M450.84,63.66c1.59-3.7,9.09-.08,9.09-.08-3.48,3.16-8.68,2.86-9.09.08Z"/>
          </g>
          <g>
            <path class="st2" d="M450.87,55.74c-1.22-4.25-7.39-3.6-7.39-3.6,2.92,3.12,7.09,5.82,7.39,3.6Z"/>
            <path class="st2" d="M450.87,55.74c1.15-3.52,8.58-.78,8.58-.78-2.9,3.25-7.97,3.28-8.58.78Z"/>
          </g>
          <g>
            <path class="st2" d="M450.23,48.62c-1.42-3.64-7.16-2.29-7.16-2.29,2.97,2.3,7.08,4.28,7.16,2.29Z"/>
            <path class="st2" d="M450.23,48.62c.78-3.2,8.01-1.16,8.01-1.16-2.34,3.1-7.25,3.32-8.01,1.16Z"/>
          </g>
          <g>
            <path class="st2" d="M449.09,42.52c-1.56-2.96-7.06-1.16-7.06-1.16,3.05,1.53,7.14,2.84,7.06,1.16Z"/>
            <path class="st2" d="M449.09,42.52c.46-2.72,7.37-1.11,7.37-1.11-1.78,2.65-6.51,2.87-7.37,1.11Z"/>
          </g>
          <g>
            <path class="st2" d="M447.59,37.66c-1.66-2.22-7.12-.33-7.12-.33,3.17.85,7.32,1.61,7.12.33Z"/>
            <path class="st2" d="M447.59,37.66c.21-2.08,6.63-.48,6.63-.48-1.23,1.88-5.72,1.81-6.63.48Z"/>
          </g>
          <g>
            <path class="st2" d="M445.88,34.24c-1.72-1.42-7.42.09-7.42.09,3.35.3,7.66.7,7.42-.09Z"/>
            <path class="st2" d="M445.88,34.24c0-1.24,5.79.83,5.79.83-.68.72-4.89.03-5.79-.83Z"/>
          </g>
        </g>
        <g>
          <path class="st2" d="M499.1,195.49c-.73-3.44-7.29-5.95-7.29-5.95,2.12,4.79,6.67,7.51,7.29,5.95Z"/>
          <g>
            <path class="st2" d="M499.41,189.47c2.22-3.11,10.13-2.09,10.13-2.09-6.43,2.7-9.28,4.14-10.13,2.09Z"/>
            <path class="st2" d="M499.41,189.47c-1.18-3.86-8.07-6.49-8.07-6.49,2.88,4.93,7.62,8.26,8.07,6.49Z"/>
          </g>
          <g>
            <path class="st2" d="M499.14,182.75c2-3.45,10.66-2.18,10.66-2.18-6.2,2.93-9.65,4.45-10.66,2.18Z"/>
            <path class="st2" d="M499.14,182.75c-1.55-4.19-8.85-6.55-8.85-6.55,3.56,4.93,8.51,8.53,8.85,6.55Z"/>
          </g>
          <g>
            <path class="st2" d="M498.5,175.38c1.85-3.77,11.07-2.2,11.07-2.2-5.99,3.14-9.97,4.67-11.07,2.2Z"/>
            <path class="st2" d="M498.5,175.38c-1.83-4.45-9.6-6.24-9.6-6.24,4.14,4.84,9.3,8.45,9.6,6.24Z"/>
          </g>
          <g>
            <path class="st2" d="M497.66,167.37c1.78-4.06,11.38-2.17,11.38-2.17-5.82,3.32-10.26,4.84-11.38,2.17Z"/>
            <path class="st2" d="M497.66,167.37c-2-4.67-10.27-5.71-10.27-5.71,4.61,4.73,9.94,8.15,10.27,5.71Z"/>
          </g>
          <g>
            <path class="st2" d="M496.84,158.78c1.78-4.34,11.62-2.13,11.62-2.13-5.7,3.51-10.55,4.99-11.62,2.13Z"/>
            <path class="st2" d="M496.84,158.78c-2.07-4.85-10.8-5.11-10.8-5.11,4.95,4.64,10.39,7.78,10.8,5.11Z"/>
          </g>
          <g>
            <path class="st2" d="M496.22,149.61c1.87-4.6,11.83-2.11,11.83-2.11-5.64,3.71-10.88,5.15-11.83,2.11Z"/>
            <path class="st2" d="M496.22,149.61c-2.03-5.02-11.16-4.58-11.16-4.58,5.14,4.62,10.61,7.46,11.16,4.58Z"/>
          </g>
          <g>
            <path class="st2" d="M495.99,139.92c2.05-4.85,12.03-2.13,12.03-2.13-5.66,3.93-11.26,5.34-12.03,2.13Z"/>
            <path class="st2" d="M495.99,139.92c-1.87-5.19-11.29-4.25-11.29-4.25,5.15,4.73,10.55,7.32,11.29,4.25Z"/>
          </g>
          <g>
            <path class="st2" d="M496.35,129.73c2.32-5.1,12.25-2.21,12.25-2.21-5.78,4.05-11.73,5.57-12.25,2.21Z"/>
            <path class="st2" d="M496.35,129.73c-1.58-5.4-11.13-4.24-11.13-4.24,4.83,4.93,10.15,7.48,11.13,4.24Z"/>
          </g>
          <g>
            <path class="st2" d="M497.72,119.53c2.92-4.84,12.31-1.87,12.31-1.87-5.89,3.6-12.22,5.05-12.31,1.87Z"/>
            <path class="st2" d="M497.72,119.53c-.87-5.15-10.51-4.3-10.51-4.3,3.86,4.91,9.15,7.36,10.51,4.3Z"/>
          </g>
          <g>
            <path class="st2" d="M500.32,110c3.37-4.47,11.92-1.32,11.92-1.32-5.8,3.08-12.22,4.28-11.92,1.32Z"/>
            <path class="st2" d="M500.32,110c-.21-4.86-9.72-4.59-9.72-4.59,2.93,4.91,8.04,7.4,9.72,4.59Z"/>
          </g>
          <g>
            <path class="st2" d="M503.91,101.22c3.66-4.04,11.17-.62,11.17-.62-5.55,2.49-11.81,3.34-11.17.62Z"/>
            <path class="st2" d="M503.91,101.22c.36-4.55-8.81-5.02-8.81-5.02,2.07,4.9,6.91,7.54,8.81,5.02Z"/>
          </g>
          <g>
            <path class="st2" d="M508.24,93.27c3.79-3.56,10.2.19,10.2.19-5.18,1.85-11.09,2.27-10.2-.19Z"/>
            <path class="st2" d="M508.24,93.27c.81-4.23-7.86-5.49-7.86-5.49,1.31,4.82,5.82,7.7,7.86,5.49Z"/>
          </g>
          <g>
            <path class="st2" d="M513.06,86.2c3.78-3.04,9.09,1.07,9.09,1.07-4.72,1.19-10.18,1.12-9.09-1.07Z"/>
            <path class="st2" d="M513.06,86.2c1.15-3.86-6.93-5.88-6.93-5.88.66,4.66,4.83,7.76,6.93,5.88Z"/>
          </g>
          <g>
            <path class="st2" d="M518.12,80.11c3.66-2.48,7.98,1.96,7.98,1.96-4.24.52-9.17-.07-7.98-1.96Z"/>
            <path class="st2" d="M518.12,80.11c1.37-3.44-6.09-6.09-6.09-6.09.15,4.35,4.02,7.62,6.09,6.09Z"/>
          </g>
          <g>
            <path class="st2" d="M523.17,75.05c3.42-1.89,6.97,2.83,6.97,2.83-3.75-.14-8.18-1.25-6.97-2.83Z"/>
            <path class="st2" d="M523.17,75.05c1.45-2.96-5.41-6.03-5.41-6.03-.19,3.87,3.44,7.19,5.41,6.03Z"/>
          </g>
          <g>
            <path class="st2" d="M527.95,71.09c3.1-1.27,6.16,3.63,6.16,3.63-3.32-.78-7.3-2.4-6.16-3.63Z"/>
            <path class="st2" d="M527.95,71.09c1.39-2.39-4.95-5.57-4.95-5.57-.33,3.18,3.16,6.37,4.95,5.57Z"/>
          </g>
          <g>
            <path class="st2" d="M532.22,68.32c2.7-.64,5.68,4.31,5.68,4.31-2.98-1.38-6.65-3.45-5.68-4.31Z"/>
            <path class="st2" d="M532.22,68.32c1.17-1.73-4.79-4.62-4.79-4.62-.26,2.23,3.23,5.06,4.79,4.62Z"/>
          </g>
          <g>
            <path class="st2" d="M535.72,66.79c2.23,0,5.64,4.82,5.64,4.82-2.76-1.92-6.33-4.37-5.64-4.82Z"/>
            <path class="st2" d="M535.72,66.79c.79-.95-4.98-3.07-4.98-3.07.07.99,3.74,3.15,4.98,3.07Z"/>
          </g>
        </g>
      </g>
    </g>
    <polygon points="313.1 232.9 307.96 242.58 430.64 216.86 352.19 291.49 474.25 336.92 522.44 277.05 466.02 285.11 467.57 281.86 424.96 275.58 535.06 160.15 439.6 175.94 462.67 146.87 372.52 175.57 351.05 173.08 415.36 110.6 401.23 110.21 419.83 85.74 370.12 93.47 356.58 109.2 358.82 93.91 321.08 103.97 305.72 164.13 281.08 180.8 284.28 183.51 160.51 252.97 313.1 232.9"/>
    <polygon class="st0" points="374 225.72 338.81 283.1 344.74 230.6 332.8 232.52 289.04 294.37 303.15 237.28 287.69 239.76 253.48 325.62 283.05 322.05 323.43 281.25 317.38 318.08 339.1 314.47 404.47 218.5 374 225.72"/>
    <path class="st0" d="M262.58,251.07c-12.12-.06-6.81-.34-6.81-.34l6.33-7.47s-32.78,5.31-42.71,15.14c0,0-30.79,55.21-34.45,78.69l12.67-1.15-6.33,6.9,32.58-7.14s9.66-2.67,17.74-16.02c8.08-13.35,29.99-59,29.99-59,0,0,3.12-9.55-9.01-9.61ZM227.36,305.81l-15.48,1.55c4.32-12.52,16.16-33.19,16.16-33.19,0,0,11.31-2.98,16.12-1.41,4.8,1.57-16.8,33.05-16.8,33.05Z"/>
    <path class="st0" d="M147.39,260.68s-72.8,46.28-69.85,44.73c2.95-1.55,40.83-9.63,40.83-9.63l-18.24,25.22-29.77,15.47,24.85-5.32-26.92,45.39,36.62-1.44,42.48-70.87-3.88,32.58,25.74-2.41,46.87-86.01-32.64,6.38-16.28,35.11,6.23-33.96-26.04,4.77Z"/>
    <path class="st0" d="M189.59,139.38l-48.23,13.12-20.48,5.57,8.56,3.88-59.08,103.75h38.62l12.68-47.2,41.24-6.89s39.44-49.54,39.68-61.8c.23-12.27-12.98-10.43-12.98-10.43ZM173.14,163.24c-2.18,7.57-12.61,27.39-12.61,27.39l-24.82,8.13,17.29-32.38s22.32-10.71,20.14-3.14Z"/>
    <path class="st0" d="M293.98,106.67c-23.11.56-54.4,67.84-54.4,67.84l-25.85,7.71,60.24-109.13-65.42,39.25,26.26-7.51-60.81,115.45,76.46-25.97,10.23-18.88,12.99-3.81-1.71,16.78,34.68-21.16h-12.67c17.23-39.31,23.11-61.14,0-60.58ZM287.33,138.61l-5.07,15.71-13.3,4.04,9.19-16.14s3.96-4.45,7.36-5.57c3.4-1.12,1.82,1.96,1.82,1.96Z"/>
    <polygon class="st0" points="328.91 111.72 317.38 156.9 336.38 154.88 296.79 181.65 300.86 185.11 197.25 243.26 330.62 220.23 325.9 229.1 461.43 200.69 369.77 287.89 471.14 325.62 499.91 289.88 449.85 297.03 453.47 289.39 405.4 282.31 508.55 174.18 416.82 189.35 435.83 165.39 268.96 218.5 342.45 181.65 330.05 180.22 392.57 119.48 382.45 119.2 397.99 98.76 375.04 102.33 342.42 140.2 347.32 106.82 328.91 111.72"/>
  </g>
</svg>