<?xml version="1.0" encoding="UTF-8"?>
<svg id="Layer_1" xmlns="http://www.w3.org/2000/svg" version="1.1" xmlns:xlink="http://www.w3.org/1999/xlink" viewBox="0 0 72 72">
  <!-- Generator: Adobe Illustrator 30.0.0, SVG Export Plug-In . SVG Version: 2.1.1 Build 123)  -->
  <defs>
    <style>
      .st0 {
        fill: #fff;
      }

      .st1 {
        fill: none;
      }

      .st2 {
        fill: url(#linear-gradient);
      }

      .st3 {
        clip-path: url(#clippath);
      }
    </style>
    <clipPath id="clippath">
      <path class="st1" d="M64,0H8C3.58,0,0,3.58,0,8v64h64c4.42,0,8-3.58,8-8V0h-8Z"/>
    </clipPath>
    <linearGradient id="linear-gradient" x1="36.01" y1="961.43" x2="36.01" y2="998" gradientTransform="translate(0 -926)" gradientUnits="userSpaceOnUse">
      <stop offset="0" stop-color="#f8f8f8"/>
      <stop offset="1" stop-color="#fff"/>
    </linearGradient>
  </defs>
  <g class="st3">
    <g>
      <rect class="st2" x="-44.59" y="35.43" width="161.19" height="36.57"/>
      <rect class="st0" x="-44.59" width="161.19" height="36.57"/>
    </g>
  </g>
  <g>
    <g>
      <path d="M18.19,29.88c0-.55.45-1,1-1h7.22v14.25h-7.22c-.55,0-1-.45-1-1v-12.24h0Z"/>
      <path d="M28.63,28.88l10.88-7.37c.67-.45,1.57.03,1.57.83v27.32c0,.8-.9,1.28-1.57.83l-10.88-7.37v-14.25h0Z"/>
    </g>
    <path d="M50.04,36l4.64-4.64c.34-.34.34-.88,0-1.22s-.88-.34-1.22,0l-4.64,4.64-4.64-4.64c-.34-.34-.88-.34-1.22,0s-.34.88,0,1.22l4.64,4.64-4.64,4.64c-.34.34-.34.88,0,1.22.17.17.39.25.61.25s.44-.08.61-.25l4.64-4.64,4.64,4.64c.17.17.39.25.61.25s.44-.08.61-.25c.34-.34.34-.88,0-1.22l-4.64-4.64Z"/>
  </g>
</svg>