<?xml version="1.0" encoding="UTF-8"?>
<svg id="Layer_1" xmlns="http://www.w3.org/2000/svg" version="1.1" viewBox="0 0 35.78 29.41">
  <!-- Generator: Adobe Illustrator 30.0.0, SVG Export Plug-In . SVG Version: 2.1.1 Build 123)  -->
  <defs>
    <style>
      .st0 {
        fill: #fff;
      }
    </style>
  </defs>
  <path class="st0" d="M.12,8.62c0-.55.45-1,1-1h7.22v14.25H1.12c-.55,0-1-.45-1-1v-12.24H.12Z"/>
  <path class="st0" d="M10.56,7.62L21.44.25c.67-.45,1.57.03,1.57.83v27.32c0,.8-.9,1.28-1.57.83l-10.88-7.37V7.61h0Z"/>
  <path class="st0" d="M25.13,10.46c.42-.26.98-.14,1.24.29.84,1.35,1.34,2.62,1.34,3.97s-.48,2.64-1.34,4.01c-.26.42-.82.55-1.24.29-.42-.26-.55-.82-.29-1.24.76-1.21,1.07-2.16,1.07-3.05s-.32-1.83-1.07-3.02c-.26-.42-.14-.98.29-1.24h0Z"/>
  <path class="st0" d="M28.6,7.62c.44-.23.99-.06,1.22.38,1.23,2.37,1.9,4.51,1.91,6.7,0,2.2-.65,4.36-1.91,6.77-.23.44-.78.61-1.22.38s-.61-.78-.38-1.22c1.17-2.25,1.71-4.12,1.7-5.93,0-1.82-.55-3.67-1.7-5.87-.23-.44-.06-.99.38-1.22h0Z"/>
  <path class="st0" d="M31.8,5.01c.44-.23.99-.07,1.22.37,1.77,3.31,2.71,6.28,2.72,9.31,0,3.03-.92,6.03-2.72,9.4-.23.44-.78.61-1.22.37-.44-.23-.61-.78-.37-1.22,1.71-3.21,2.51-5.91,2.5-8.55,0-2.64-.82-5.31-2.5-8.46-.23-.44-.07-.99.37-1.22Z"/>
</svg>